<svg id="visual" viewBox="0 0 900 450" width="900" height="450" xmlns="http://www.w3.org/2000/svg" xmlns:xlink="http://www.w3.org/1999/xlink" version="1.1"><rect x="0" y="0" width="900" height="450" fill="#001220"></rect><defs><linearGradient id="grad1_0" x1="50%" y1="100%" x2="100%" y2="0%"><stop offset="10%" stop-color="#001220" stop-opacity="1"></stop><stop offset="90%" stop-color="#001220" stop-opacity="1"></stop></linearGradient></defs><defs><linearGradient id="grad2_0" x1="0%" y1="100%" x2="50%" y2="0%"><stop offset="10%" stop-color="#001220" stop-opacity="1"></stop><stop offset="90%" stop-color="#001220" stop-opacity="1"></stop></linearGradient></defs><g transform="translate(900, 450)"><path d="M-271 0C-282.7 -56.2 -294.3 -112.4 -272.8 -157.5C-251.3 -202.6 -196.5 -236.8 -145.5 -252C-94.5 -267.3 -47.2 -263.6 0 -260L0 0Z" fill="#FBAE3C"></path></g><g transform="translate(0, 0)"><path d="M278 0C260.2 44 242.4 88 220 127C197.5 166 170.4 199.9 133 230.4C95.6 260.9 47.8 287.9 0 315L0 0Z" fill="#FBAE3C"></path></g></svg>