<svg id="visual" viewBox="0 0 600 900" width="600" height="900" xmlns="http://www.w3.org/2000/svg" xmlns:xlink="http://www.w3.org/1999/xlink" version="1.1"><rect x="0" y="0" width="600" height="900" fill="#001220"></rect><defs><linearGradient id="grad1_0" x1="0%" y1="100%" x2="100%" y2="0%"><stop offset="30%" stop-color="#001220" stop-opacity="1"></stop><stop offset="70%" stop-color="#001220" stop-opacity="1"></stop></linearGradient></defs><defs><linearGradient id="grad2_0" x1="0%" y1="100%" x2="100%" y2="0%"><stop offset="30%" stop-color="#001220" stop-opacity="1"></stop><stop offset="70%" stop-color="#001220" stop-opacity="1"></stop></linearGradient></defs><g transform="translate(600, 900)"><path d="M-102 0C-102.8 -14.3 -103.6 -28.5 -98.9 -40.9C-94.1 -53.4 -84 -64 -73.5 -73.5C-63.1 -83 -52.5 -91.4 -40.2 -97C-27.9 -102.6 -13.9 -105.4 0 -108.2L0 0Z" fill="#FBAE3C"></path></g><g transform="translate(0, 0)"><path d="M105 0C101.8 13 98.6 26.1 94.2 39C89.9 52 84.5 64.8 75.7 75.7C66.8 86.5 54.6 95.4 41.4 99.9C28.2 104.5 14.1 104.7 0 105L0 0Z" fill="#FBAE3C"></path></g></svg>